<?xml version="1.0" standalone="no"?>
<!DOCTYPE svg PUBLIC "-//W3C//DTD SVG 20010904//EN"
 "http://www.w3.org/TR/2001/REC-SVG-20010904/DTD/svg10.dtd">
<svg version="1.0" xmlns="http://www.w3.org/2000/svg"
 width="2084.000000pt" height="2084.000000pt" viewBox="0 0 2084.000000 2084.000000"
 preserveAspectRatio="xMidYMid meet">
<metadata>
Created by potrace 1.14, written by Peter Selinger 2001-2017
</metadata>
<g transform="translate(0.000000,2084.000000) scale(0.100000,-0.100000)"
fill="#000000" stroke="none">
<path d="M10025 20834 c-675 -34 -1105 -86 -1670 -199 -1633 -328 -3139 -1031
-4443 -2074 -2210 -1768 -3605 -4351 -3866 -7156 -33 -354 -40 -523 -40 -985
0 -555 17 -850 80 -1340 201 -1570 759 -3068 1639 -4400 666 -1007 1487 -1876
2463 -2608 1546 -1157 3410 -1866 5327 -2027 436 -36 1032 -47 1440 -25 2402
128 4612 1040 6420 2649 168 149 647 628 796 796 1514 1701 2417 3772 2618
6005 55 600 56 1249 6 1855 -225 2691 -1516 5214 -3579 6992 -1018 877 -2227
1565 -3495 1989 -843 282 -1671 443 -2636 514 -140 11 -927 21 -1060 14z
m2468 -4475 c34 -11 83 -34 109 -51 60 -38 140 -124 166 -180 93 -195 1955
-4500 1963 -4540 18 -81 -1 -148 -59 -208 -71 -73 -114 -82 -360 -78 l-197 3
-66 32 c-45 22 -85 52 -121 91 -52 56 -76 110 -813 1754 -703 1569 -761 1695
-771 1670 -7 -15 -542 -1465 -1189 -3222 -648 -1757 -1189 -3220 -1204 -3250
-36 -77 -140 -179 -221 -219 -100 -48 -206 -67 -305 -53 -143 21 -179 44 -605
400 -211 177 -387 322 -391 322 -3 0 -347 -926 -764 -2057 -439 -1193 -770
-2078 -787 -2106 -37 -58 -114 -128 -171 -156 -24 -11 -74 -28 -111 -38 -177
-43 -376 58 -459 234 -30 64 -32 74 -31 178 l0 110 823 2230 c452 1227 834
2250 848 2274 134 230 442 318 683 196 28 -14 226 -172 440 -350 214 -178 391
-321 394 -317 2 4 590 1598 1306 3542 735 1996 1315 3558 1333 3589 36 61 112
133 171 163 119 61 273 76 389 37z"/>
</g>
</svg>
